<svg width="187" height="272" viewBox="0 0 187 272" fill="none" xmlns="http://www.w3.org/2000/svg">
<path d="M5 149.484C34.524 136.823 63.7764 143.455 82.5862 169.592C95.4355 187.447 93.9365 226.119 97.6915 248.537C98.9051 255.782 100.438 267.156 100.438 267.156C100.438 267.156 100.265 256.26 100.438 249.282C100.886 231.171 98.0321 198.194 102.498 180.764C108.692 156.586 116.23 145.015 137.515 140.547C161.108 135.593 162.919 132.354 182.144 133.844" stroke="#0D1E5C" stroke-width="8.88991" stroke-linecap="round" stroke-linejoin="round"/>
<path d="M7.30928 136.409C5.02406 135.512 2.44454 136.638 1.54778 138.923C0.651014 141.208 1.77658 143.788 4.06181 144.684L7.30928 136.409ZM37.2693 145.76L37.8895 150.161L37.2693 145.76ZM92.1976 33.3009L96.6426 33.3097L92.1976 33.3009ZM90.8244 5L95.2549 4.64135C95.0661 2.30975 93.1026 0.523436 90.7636 0.55546C88.4246 0.587484 86.5106 2.42689 86.3858 4.76278L90.8244 5ZM94.2574 97.3504L98.6527 96.6874L94.2574 97.3504ZM118.289 127.141L120.19 123.123L118.289 127.141ZM181.108 131.83C182.876 130.126 182.927 127.312 181.223 125.545C179.519 123.778 176.705 123.727 174.938 125.431L181.108 131.83ZM5.68555 140.547C4.06181 144.684 4.06257 144.685 4.06341 144.685C4.06378 144.685 4.06468 144.686 4.06542 144.686C4.0669 144.686 4.06866 144.687 4.0707 144.688C4.07477 144.689 4.07995 144.691 4.08622 144.694C4.09877 144.699 4.1157 144.705 4.13692 144.714C4.17936 144.73 4.23899 144.753 4.31511 144.782C4.46733 144.84 4.68562 144.921 4.96438 145.023C5.52167 145.227 6.32196 145.511 7.3203 145.844C9.3136 146.51 12.1141 147.375 15.3586 148.179C21.7236 149.757 30.2936 151.232 37.8895 150.161L36.6491 141.358C30.7809 142.185 23.559 141.053 17.4981 139.55C14.5297 138.814 11.9588 138.02 10.1339 137.412C9.22317 137.108 8.50269 136.851 8.01646 136.674C7.77347 136.585 7.58932 136.516 7.46954 136.47C7.40966 136.448 7.3659 136.431 7.33895 136.42C7.32548 136.415 7.31621 136.412 7.31124 136.41C7.30875 136.409 7.30734 136.408 7.30701 136.408C7.30684 136.408 7.30695 136.408 7.30733 136.408C7.30752 136.408 7.30801 136.408 7.3081 136.408C7.30866 136.409 7.30928 136.409 5.68555 140.547ZM37.8895 150.161C46.7885 148.908 55.9396 145.524 63.6241 140.868C71.2372 136.256 77.8714 130.111 81.1291 123.044L73.0556 119.322C70.8205 124.171 65.8097 129.15 59.0177 133.265C52.2972 137.336 44.2832 140.283 36.6491 141.358L37.8895 150.161ZM81.1291 123.044C96.664 89.342 96.5718 69.1644 96.6426 33.3097L87.7527 33.2922C87.6822 68.9763 87.7313 87.4846 73.0556 119.322L81.1291 123.044ZM96.6426 33.3097C96.6538 27.6298 96.3031 20.4395 95.956 14.7304C95.7816 11.8628 95.6067 9.34444 95.4752 7.54233C95.4095 6.641 95.3546 5.91812 95.3161 5.41948C95.2968 5.17015 95.2816 4.97683 95.2712 4.84525C95.266 4.77945 95.2619 4.72909 95.2592 4.69487C95.2578 4.67776 95.2568 4.66468 95.2561 4.65574C95.2557 4.65126 95.2554 4.64782 95.2552 4.64542C95.2551 4.64422 95.255 4.64328 95.255 4.6426C95.255 4.64226 95.2549 4.64195 95.2549 4.64178C95.2549 4.64153 95.2549 4.64135 90.8244 5C86.394 5.35865 86.394 5.3586 86.394 5.35862C86.394 5.35871 86.394 5.35879 86.394 5.35898C86.394 5.35935 86.3941 5.35998 86.3941 5.36087C86.3943 5.36266 86.3945 5.36548 86.3948 5.36933C86.3954 5.37703 86.3964 5.38885 86.3977 5.40468C86.4002 5.43635 86.404 5.48411 86.409 5.54724C86.419 5.6735 86.4338 5.86124 86.4526 6.10475C86.4902 6.5918 86.5442 7.30175 86.6089 8.18898C86.7383 9.96401 86.9108 12.4457 87.0825 15.2699C87.4274 20.9444 87.7633 27.9046 87.7527 33.2922L96.6426 33.3097ZM90.8244 5C86.3858 4.76278 86.3858 4.76333 86.3857 4.76407C86.3857 4.76458 86.3857 4.76552 86.3856 4.76654C86.3855 4.76858 86.3853 4.7714 86.3852 4.77499C86.3848 4.78218 86.3842 4.79248 86.3835 4.80587C86.3821 4.83264 86.3801 4.87174 86.3775 4.92293C86.3723 5.02531 86.3648 5.17607 86.3553 5.37331C86.3363 5.7678 86.3094 6.34828 86.2775 7.09964C86.2138 8.60228 86.1299 10.7889 86.0488 13.5385C85.8867 19.0366 85.7355 26.7919 85.7787 35.8357C85.865 53.8865 86.7255 77.2209 89.8622 98.0135L98.6527 96.6874C95.61 76.5181 94.754 53.6773 94.6685 35.7933C94.6259 26.8697 94.7751 19.2178 94.9349 13.8005C95.0147 11.0924 95.0972 8.94425 95.1594 7.47657C95.1906 6.74278 95.2167 6.1792 95.2349 5.80092C95.244 5.61179 95.2511 5.46899 95.256 5.3744C95.2584 5.32711 95.2602 5.29188 95.2614 5.26894C95.262 5.25746 95.2624 5.24907 95.2627 5.24377C95.2628 5.24112 95.2629 5.23925 95.263 5.23816C95.263 5.23761 95.263 5.23738 95.2631 5.2371C95.2631 5.23706 95.263 5.23722 90.8244 5ZM89.8622 98.0135C91.9047 111.553 101.364 124.048 116.387 131.159L120.19 123.123C107.492 117.113 100.199 106.935 98.6527 96.6874L89.8622 98.0135ZM116.387 131.159C135.757 140.327 150.001 142.482 160.522 141.237C171.155 139.979 177.506 135.304 181.108 131.83L174.938 125.431C172.361 127.915 167.726 131.433 159.477 132.409C151.116 133.398 138.583 131.829 120.19 123.123L116.387 131.159Z" fill="#0D1E5C"/>
<path opacity="0.3" d="M61.9838 132.867L42.0723 142.549L68.1632 154.465L80.5221 171.595L88.0747 193.193L96.314 237.878V193.193L103.18 162.657L117.599 144.783L145.063 132.867L120.345 127.654L92.8809 108.29L88.0747 80.7336L73.656 117.972L61.9838 132.867Z" fill="#0D1E5C"/>
</svg>
