<svg width="57" height="56" viewBox="0 0 57 56" fill="none" xmlns="http://www.w3.org/2000/svg">
<g clip-path="url(#clip0_1503_513)">
<path d="M5.70801 8.91406H51.5262V47.0959H5.70801V8.91406Z" fill="#0F9D58"/>
<path d="M38.7991 29.2781C40.3794 29.2781 41.6627 27.9947 41.6627 26.4144C41.6627 24.8341 40.3794 23.5508 38.7991 23.5508C37.2188 23.5508 35.9354 24.8341 35.9354 26.4144C35.9354 27.9947 37.2188 29.2781 38.7991 29.2781ZM38.7991 31.1871C35.7339 31.1871 32.4354 32.8099 32.4354 34.825V36.9144H45.1627V34.825C45.1627 32.8099 41.8642 31.1871 38.7991 31.1871ZM18.4354 29.2781C20.0157 29.2781 21.2991 27.9947 21.2991 26.4144C21.2991 24.8341 20.0157 23.5508 18.4354 23.5508C16.8551 23.5508 15.5718 24.8341 15.5718 26.4144C15.5718 27.9947 16.8551 29.2781 18.4354 29.2781ZM18.4354 31.1871C15.3703 31.1871 12.0718 32.8099 12.0718 34.825V36.9144H24.7991V34.825C24.7991 32.8099 21.5006 31.1871 18.4354 31.1871Z" fill="#57BB8A"/>
<path d="M28.6171 26.734C30.7277 26.734 32.4353 25.0264 32.4353 22.9158C32.4353 20.8052 30.7277 19.0977 28.6171 19.0977C26.5065 19.0977 24.7989 20.8052 24.7989 22.9158C24.7989 25.0264 26.5065 26.734 28.6171 26.734ZM28.6171 29.2795C24.3216 29.2795 19.708 31.5598 19.708 34.3704V36.9158H37.5262V34.3704C37.5262 31.5598 32.9126 29.2795 28.6171 29.2795Z" fill="#F7F7F7"/>
<path d="M33.708 44.5508H45.1626V47.0962H33.708V44.5508Z" fill="#F1F1F1"/>
<path d="M52.799 3.82422H4.43537C2.32476 3.82422 0.617188 5.53179 0.617188 7.6424V48.3697C0.617188 50.4803 2.32476 52.1879 4.43537 52.1879H52.799C54.9096 52.1879 56.6172 50.4803 56.6172 48.3697V7.6424C56.6172 5.53179 54.9096 3.82422 52.799 3.82422ZM51.5263 47.0969H5.7081V8.91513H51.5263V47.0969Z" fill="#F4B400"/>
<path opacity="0.2" d="M52.799 3.82422H4.43537C2.32476 3.82422 0.617188 5.53179 0.617188 7.6424V7.96058C0.617188 5.84998 2.32476 4.1424 4.43537 4.1424H52.799C54.9096 4.1424 56.6172 5.84998 56.6172 7.96058V7.6424C56.6172 5.53179 54.9096 3.82422 52.799 3.82422Z" fill="white"/>
<path opacity="0.2" d="M52.799 51.869H4.43537C2.32476 51.869 0.617188 50.1614 0.617188 48.0508V48.369C0.617188 50.4796 2.32476 52.1871 4.43537 52.1871H52.799C54.9096 52.1871 56.6172 50.4796 56.6172 48.369V48.0508C56.6172 50.1614 54.9096 51.869 52.799 51.869Z" fill="#BF360C"/>
<path d="M45.1416 47.0977H33.687L38.7779 52.1886H50.2219L45.1416 47.0977Z" fill="url(#paint0_linear_1503_513)"/>
<path opacity="0.2" d="M5.70801 8.59766H51.5262V8.91584H5.70801V8.59766Z" fill="#263238"/>
<path opacity="0.2" d="M5.70801 47.0977H51.5262V47.4158H5.70801V47.0977Z" fill="white"/>
<path d="M52.799 3.82422H4.43537C2.32476 3.82422 0.617188 5.53179 0.617188 7.6424V48.3697C0.617188 50.4803 2.32476 52.1879 4.43537 52.1879H52.799C54.9096 52.1879 56.6172 50.4803 56.6172 48.3697V7.6424C56.6172 5.53179 54.9096 3.82422 52.799 3.82422Z" fill="url(#paint1_radial_1503_513)"/>
</g>
<defs>
<linearGradient id="paint0_linear_1503_513" x1="4399.15" y1="79.2498" x2="4399.15" y2="2392.74" gradientUnits="userSpaceOnUse">
<stop stop-color="#BF360C" stop-opacity="0.2"/>
<stop offset="1" stop-color="#BF360C" stop-opacity="0.02"/>
</linearGradient>
<radialGradient id="paint1_radial_1503_513" cx="0" cy="0" r="1" gradientUnits="userSpaceOnUse" gradientTransform="translate(870.632 520.762) scale(121998 121997)">
<stop stop-color="white" stop-opacity="0.1"/>
<stop offset="1" stop-color="white" stop-opacity="0"/>
</radialGradient>
<clipPath id="clip0_1503_513">
<rect width="56" height="56" fill="white" transform="translate(0.617188 0.0078125)"/>
</clipPath>
</defs>
</svg>
