<svg width="57" height="68" viewBox="0 0 57 68" fill="none" xmlns="http://www.w3.org/2000/svg">
<rect x="8.21094" y="5.35156" width="48.7581" height="62.4844" rx="3" fill="#EAEAEA"/>
<rect x="1.71094" y="1.85156" width="47.7581" height="61.4844" rx="2.5" fill="white" stroke="#EFEFEF"/>
<path d="M20.125 24.9863C20.0957 25.1523 20.0273 25.2695 19.9199 25.3379C19.8223 25.416 19.7295 25.5234 19.6416 25.6602H19.583C19.4854 25.6602 19.3877 25.6699 19.29 25.6895C19.2021 25.709 19.1094 25.7334 19.0117 25.7627C18.9629 25.7432 18.9043 25.7285 18.8359 25.7188C18.7676 25.709 18.7236 25.6748 18.7041 25.6162C18.626 25.6553 18.5186 25.6748 18.3818 25.6748C18.1572 25.6748 17.9424 25.6113 17.7373 25.4844C17.542 25.3574 17.3369 25.2598 17.1221 25.1914C17.0635 25.0742 16.9902 24.9668 16.9023 24.8691C16.8242 24.7812 16.7412 24.6934 16.6533 24.6055C16.5752 24.5176 16.4971 24.4248 16.4189 24.3271C16.3408 24.2295 16.2773 24.1123 16.2285 23.9756C16.209 23.917 16.1846 23.8828 16.1553 23.873C16.126 23.8633 16.082 23.8633 16.0234 23.873C16.0332 23.7656 16.0186 23.6729 15.9795 23.5947C15.9502 23.5166 15.877 23.4678 15.7598 23.4482C15.7598 23.3213 15.7402 23.2139 15.7012 23.126C15.6621 23.0381 15.6133 22.96 15.5547 22.8916C15.5059 22.833 15.4473 22.7695 15.3789 22.7012C15.3203 22.6328 15.2715 22.5498 15.2324 22.4521C15.1445 22.4326 15.0566 22.418 14.9688 22.4082C14.8906 22.4082 14.8027 22.4082 14.7051 22.4082C14.2363 22.4082 13.7822 22.4961 13.3428 22.6719C13.2939 22.6914 13.2402 22.7158 13.1816 22.7451C13.1328 22.7744 13.084 22.7988 13.0352 22.8184C13.0156 22.8184 12.9961 22.8184 12.9766 22.8184C12.9668 22.8281 12.9521 22.833 12.9326 22.833C12.8643 22.833 12.8008 22.8184 12.7422 22.7891C12.6836 22.7695 12.6201 22.7598 12.5518 22.7598C12.5225 22.7598 12.4883 22.7646 12.4492 22.7744C12.4199 22.7939 12.3906 22.8086 12.3613 22.8184C12.2148 22.8672 12.0781 22.8965 11.9512 22.9062C11.5508 22.9844 11.126 23.043 10.6768 23.082C10.2373 23.1211 9.83203 23.2236 9.46094 23.3896C9.38281 23.4287 9.33398 23.4873 9.31445 23.5654C9.29492 23.6533 9.29004 23.7363 9.2998 23.8145C9.19238 23.8926 9.10938 23.9951 9.05078 24.1221C9.00195 24.249 8.95312 24.3809 8.9043 24.5176C8.86523 24.6641 8.82129 24.8057 8.77246 24.9424C8.72363 25.0791 8.65527 25.1963 8.56738 25.2939C8.59668 25.3525 8.61133 25.416 8.61133 25.4844C8.61133 25.6309 8.5625 25.7773 8.46484 25.9238C8.36719 26.0703 8.29395 26.2119 8.24512 26.3486C8.19629 26.4854 8.15723 26.6172 8.12793 26.7441C8.09863 26.8809 8.05469 27.0029 7.99609 27.1104C7.9375 27.2178 7.85938 27.3057 7.76172 27.374C7.6543 27.4424 7.50781 27.4766 7.32227 27.4766C7.14648 27.4766 6.99512 27.4424 6.86816 27.374C6.74121 27.3057 6.63867 27.2178 6.56055 27.1104C6.48242 27.0029 6.41895 26.876 6.37012 26.7295C6.32129 26.583 6.28223 26.4365 6.25293 26.29C6.36035 26.0752 6.46289 25.8896 6.56055 25.7334C6.6582 25.5771 6.73145 25.377 6.78027 25.1328C6.95605 25.0059 7.08789 24.8496 7.17578 24.6641C7.25391 24.4883 7.29785 24.293 7.30762 24.0781C7.41504 24.0098 7.49316 23.917 7.54199 23.7998C7.58105 23.6924 7.60547 23.5752 7.61523 23.4482C7.38086 23.4287 7.13672 23.4092 6.88281 23.3896C6.61914 23.3701 6.375 23.3213 6.15039 23.2432C6.15039 23.2236 6.15527 23.2041 6.16504 23.1846C6.16504 23.165 6.16504 23.1455 6.16504 23.126C6.16504 22.999 6.13574 22.8818 6.07715 22.7744C6.01855 22.6768 5.98926 22.5693 5.98926 22.4521V22.335C6.06738 22.2568 6.14062 22.1738 6.20898 22.0859C6.26758 22.0078 6.33105 21.9346 6.39941 21.8662C6.46777 21.7979 6.5459 21.7393 6.63379 21.6904C6.72168 21.6514 6.83398 21.6318 6.9707 21.6318C7.15625 21.6318 7.33691 21.6416 7.5127 21.6611C7.68848 21.6904 7.86914 21.7051 8.05469 21.7051C8.18164 21.7051 8.31348 21.6904 8.4502 21.6611C8.66504 21.2217 8.85547 20.7773 9.02148 20.3281C9.1875 19.8691 9.31445 19.4053 9.40234 18.9365C9.4707 18.8389 9.53418 18.7266 9.59277 18.5996C9.65137 18.4629 9.69531 18.3213 9.72461 18.1748C9.76367 18.0283 9.78809 17.8867 9.79785 17.75C9.81738 17.6035 9.82715 17.4717 9.82715 17.3545C9.93457 17.2275 10.0078 17.0713 10.0469 16.8857C10.0957 16.7002 10.1348 16.5098 10.1641 16.3145C10.1934 16.1094 10.2227 15.9092 10.252 15.7139C10.291 15.5186 10.3594 15.3477 10.457 15.2012V15.0693C10.4668 14.9229 10.4521 14.791 10.4131 14.6738C10.4619 14.6543 10.4912 14.6104 10.501 14.542C10.5107 14.4736 10.5303 14.415 10.5596 14.3662C10.5693 13.917 10.6182 13.4775 10.7061 13.0479C10.7939 12.6084 10.8672 12.1689 10.9258 11.7295V11.6855C10.9258 11.6367 10.9062 11.6123 10.8672 11.6123C10.8379 11.6025 10.8232 11.5732 10.8232 11.5244C10.8232 11.4365 10.833 11.3193 10.8525 11.1729C10.8818 11.0264 10.9014 10.9043 10.9111 10.8066C10.9697 10.2793 10.999 9.75684 10.999 9.23926C10.999 8.7998 10.9844 8.36523 10.9551 7.93555C10.9258 7.50586 10.8965 7.07129 10.8672 6.63184L10.9844 6.45605C11.0234 6.39746 11.0576 6.33887 11.0869 6.28027C11.1846 6.24121 11.2627 6.20215 11.3213 6.16309C11.3896 6.11426 11.4775 6.08984 11.585 6.08984C11.6143 6.08984 11.6387 6.09473 11.6582 6.10449C11.6777 6.10449 11.6973 6.10449 11.7168 6.10449C11.7754 6.14355 11.8193 6.19727 11.8486 6.26562C11.8877 6.33398 11.9219 6.39746 11.9512 6.45605C11.9902 6.51465 12.0391 6.56348 12.0977 6.60254C12.1562 6.6416 12.2393 6.65137 12.3467 6.63184C12.3955 6.90527 12.5322 7.04688 12.7568 7.05664C12.8057 7.19336 12.8643 7.33008 12.9326 7.4668C13.0107 7.60352 13.1133 7.71094 13.2402 7.78906C13.2305 7.82812 13.2256 7.88184 13.2256 7.9502C13.2256 8.08691 13.2549 8.21875 13.3135 8.3457C13.3818 8.47266 13.4648 8.58984 13.5625 8.69727V8.72656C13.5625 8.83398 13.5234 8.90723 13.4453 8.94629C13.5332 9.04395 13.5967 9.16113 13.6357 9.29785C13.6748 9.43457 13.709 9.57617 13.7383 9.72266C13.7676 9.85938 13.8018 9.99121 13.8408 10.1182C13.8896 10.2451 13.9678 10.3428 14.0752 10.4111V10.4551C14.0752 10.5039 14.0557 10.5332 14.0166 10.543C13.9873 10.5527 13.9727 10.582 13.9727 10.6309C14.1484 10.9531 14.2705 11.3047 14.3389 11.6855C14.4072 12.0664 14.4951 12.4326 14.6025 12.7842C14.6416 12.8232 14.6855 12.8477 14.7344 12.8574C14.793 12.8672 14.8369 12.8916 14.8662 12.9307C14.8076 12.9697 14.7783 13.0381 14.7783 13.1357C14.7783 13.2334 14.7539 13.3066 14.7051 13.3555C14.7832 13.4238 14.8174 13.5264 14.8076 13.6631C14.8076 13.79 14.8467 13.8828 14.9248 13.9414V14C14.9248 14.0391 14.915 14.0732 14.8955 14.1025C14.876 14.1221 14.8662 14.1514 14.8662 14.1904V14.249C14.9443 14.5908 15.0029 14.9326 15.042 15.2744C15.0908 15.6162 15.1396 15.958 15.1885 16.2998C15.2373 16.6416 15.291 16.9834 15.3496 17.3252C15.4082 17.6572 15.4912 17.9844 15.5986 18.3066C15.6084 18.3164 15.6133 18.3311 15.6133 18.3506C15.6133 18.3994 15.5938 18.4287 15.5547 18.4385C15.5156 18.4385 15.4961 18.4629 15.4961 18.5117C15.4961 18.5605 15.5107 18.6191 15.54 18.6875C15.5791 18.7461 15.6182 18.7949 15.6572 18.834C15.6475 18.873 15.6426 18.9316 15.6426 19.0098C15.6426 19.1562 15.667 19.2979 15.7158 19.4346C15.7744 19.5713 15.833 19.708 15.8916 19.8447C15.96 19.9717 16.0186 20.1084 16.0674 20.2549C16.1162 20.4014 16.1357 20.5576 16.126 20.7236C16.1846 20.8115 16.2578 20.8848 16.3457 20.9434C16.4434 21.002 16.541 21.0557 16.6387 21.1045C16.7363 21.1533 16.8242 21.2119 16.9023 21.2803C16.9902 21.3486 17.0488 21.4414 17.0781 21.5586C17 21.627 16.9463 21.71 16.917 21.8076C16.8877 21.915 16.834 22.0078 16.7559 22.0859C16.8242 22.252 16.9023 22.4033 16.9902 22.54C17.0879 22.6865 17.1855 22.8281 17.2832 22.9648L17.5908 23.375C17.6982 23.5117 17.791 23.6582 17.8691 23.8145C17.9766 23.8145 18.0547 23.8438 18.1035 23.9023C18.1523 23.9609 18.2305 23.9854 18.3379 23.9756C18.377 24.0537 18.3916 24.1416 18.3818 24.2393C18.5771 24.1709 18.7725 24.1367 18.9678 24.1367C19.0752 24.1367 19.1729 24.1416 19.2607 24.1514C19.3584 24.1611 19.4561 24.166 19.5537 24.166C19.6709 24.166 19.7734 24.1514 19.8613 24.1221C19.9004 24.1807 19.9297 24.2441 19.9492 24.3125C19.9688 24.3906 19.9834 24.4688 19.9932 24.5469L20.0371 24.7812C20.0566 24.8594 20.0859 24.9277 20.125 24.9863ZM14.6025 20.9287C14.4658 20.2549 14.3242 19.5859 14.1777 18.9219C14.041 18.248 13.9189 17.5693 13.8115 16.8857C13.7529 16.5244 13.709 16.1631 13.6797 15.8018C13.6504 15.4404 13.6113 15.084 13.5625 14.7324C13.5234 14.3711 13.4648 14.0146 13.3867 13.6631C13.3184 13.3115 13.2158 12.9648 13.0791 12.623V12.5938C13.0791 12.5645 13.0889 12.54 13.1084 12.5205C13.1279 12.501 13.1377 12.4668 13.1377 12.418V12.3594C13.0107 12.2715 12.9229 12.1494 12.874 11.9932C12.8252 11.8271 12.7812 11.6562 12.7422 11.4805C12.7129 11.2949 12.6689 11.1191 12.6104 10.9531C12.5615 10.7773 12.4736 10.6309 12.3467 10.5137C12.2979 11.0801 12.2441 11.6465 12.1855 12.2129C12.1367 12.7695 12.1025 13.3311 12.083 13.8975C11.9854 13.9561 11.9219 14.0537 11.8926 14.1904C11.8633 14.3271 11.8486 14.4492 11.8486 14.5566C11.8486 14.6348 11.8535 14.7178 11.8633 14.8057C11.873 14.8838 11.8926 14.9668 11.9219 15.0547C11.7461 15.4941 11.6191 15.9482 11.541 16.417C11.4629 16.876 11.375 17.335 11.2773 17.7939C11.2676 17.8232 11.248 17.8916 11.2188 17.999C11.1992 18.0967 11.1748 18.1992 11.1455 18.3066C11.1162 18.4141 11.0918 18.5117 11.0723 18.5996C11.0527 18.6777 11.043 18.7217 11.043 18.7314C11.0332 18.7998 11.0283 18.8682 11.0283 18.9365C11.0381 19.0049 11.043 19.0732 11.043 19.1416L10.8232 19.3613C10.7842 19.7324 10.7109 20.0938 10.6035 20.4453C10.5059 20.7871 10.4033 21.1387 10.2959 21.5C10.3643 21.5098 10.4277 21.5146 10.4863 21.5146C10.5547 21.5244 10.623 21.5293 10.6914 21.5293C11.0039 21.5293 11.3164 21.5098 11.6289 21.4707C11.9512 21.4219 12.2686 21.3779 12.5811 21.3389C12.6885 21.3193 12.8008 21.3047 12.918 21.2949C13.0352 21.2754 13.1475 21.2656 13.2549 21.2656C13.3037 21.2559 13.3623 21.2559 13.4307 21.2656C13.499 21.2656 13.5576 21.2607 13.6064 21.251C13.6846 21.2314 13.7334 21.2021 13.7529 21.1631C13.7822 21.1143 13.8359 21.085 13.9141 21.0752C13.9727 21.1045 14.041 21.1191 14.1191 21.1191C14.207 21.1191 14.29 21.0996 14.3682 21.0605C14.4463 21.0215 14.5244 20.9775 14.6025 20.9287ZM30.2178 16.1387C30.1396 16.2949 30.0322 16.417 29.8955 16.5049C29.7588 16.5928 29.6367 16.7051 29.5293 16.8418C29.373 16.832 29.2217 16.8125 29.0752 16.7832C28.9385 16.7539 28.792 16.7393 28.6357 16.7393C28.5283 16.7393 28.416 16.7588 28.2988 16.7979C28.1816 16.8271 28.084 16.8955 28.0059 17.0029C27.6152 16.9248 27.2197 16.8857 26.8193 16.8857C26.4287 16.876 26.0381 16.8613 25.6475 16.8418C25.4229 16.9785 25.1787 17.0566 24.915 17.0762C24.6611 17.0957 24.4121 17.1396 24.168 17.208C24.1289 17.4326 24.0898 17.6621 24.0508 17.8965C24.0117 18.1211 23.9922 18.3457 23.9922 18.5703C23.9922 18.7266 24.0117 18.8926 24.0508 19.0684C24.0898 19.2441 24.1777 19.376 24.3145 19.4639C24.3047 19.7568 24.3047 20.0205 24.3145 20.2549C24.3242 20.4893 24.2754 20.748 24.168 21.0312C24.1191 21.0117 24.0703 20.9922 24.0215 20.9727C23.9824 20.9531 23.9385 20.9434 23.8896 20.9434C23.8018 20.9434 23.7236 20.9775 23.6553 21.0459C23.5869 21.1045 23.5234 21.1777 23.4648 21.2656C23.4062 21.3438 23.3428 21.4219 23.2744 21.5C23.2158 21.5781 23.1426 21.6318 23.0547 21.6611C22.8398 21.6025 22.6299 21.5 22.4248 21.3535C22.3955 21.2168 22.3662 21.085 22.3369 20.958C22.3174 20.8213 22.3076 20.6846 22.3076 20.5479C22.3076 20.3916 22.332 20.2256 22.3809 20.0498C22.3223 19.9033 22.2783 19.7568 22.249 19.6104C22.2295 19.4639 22.2197 19.3125 22.2197 19.1562C22.2197 18.9512 22.2344 18.7461 22.2637 18.541C22.293 18.3262 22.3076 18.1064 22.3076 17.8818C22.3076 17.7744 22.3027 17.6719 22.293 17.5742C22.2832 17.4668 22.2588 17.3594 22.2197 17.252C22.0439 17.2715 21.8682 17.2812 21.6924 17.2812C21.5264 17.2812 21.3555 17.2861 21.1797 17.2959C21.0137 17.3057 20.8477 17.3301 20.6816 17.3691C20.5156 17.3984 20.3496 17.4521 20.1836 17.5303C20.0762 17.4619 19.9492 17.4277 19.8027 17.4277C19.7148 17.4277 19.627 17.4375 19.5391 17.457C19.4512 17.4766 19.3584 17.4863 19.2607 17.4863C19.1533 17.4863 19.041 17.4619 18.9238 17.4131C18.7969 17.1592 18.6406 16.9346 18.4551 16.7393C18.2793 16.5342 18.1328 16.3047 18.0156 16.0508C18.4551 15.9922 18.8896 15.9531 19.3193 15.9336C19.749 15.9141 20.1836 15.8945 20.623 15.875C20.7012 15.875 20.7988 15.875 20.916 15.875C21.0332 15.8652 21.1504 15.8604 21.2676 15.8604C21.3945 15.8604 21.5166 15.8604 21.6338 15.8604C21.751 15.8506 21.8438 15.8408 21.9121 15.8311C21.9902 15.8115 22.0488 15.7725 22.0879 15.7139C22.127 15.6455 22.1904 15.6016 22.2783 15.582C22.249 15.3379 22.2246 15.0693 22.2051 14.7764C22.1855 14.4834 22.166 14.1904 22.1465 13.8975C22.127 13.5947 22.0977 13.3018 22.0586 13.0186C22.0195 12.7354 21.9561 12.4814 21.8682 12.2568C21.8877 12.1494 21.917 12.0469 21.9561 11.9492C22.0049 11.8516 22.0439 11.7441 22.0732 11.627C22.1514 11.6172 22.2246 11.5928 22.293 11.5537C22.3711 11.5146 22.4541 11.4951 22.542 11.4951C22.5908 11.4951 22.6689 11.5195 22.7764 11.5684C22.8936 11.6074 23.0107 11.6562 23.1279 11.7148C23.2549 11.7734 23.3721 11.8369 23.4795 11.9053C23.5869 11.9639 23.6553 12.0127 23.6846 12.0518V12.125C23.6846 12.291 23.6992 12.4473 23.7285 12.5938C23.7676 12.7305 23.8115 12.8721 23.8604 13.0186L23.9189 13.165C23.9385 13.2139 23.9531 13.2627 23.9629 13.3115C23.9727 13.3604 23.9775 13.4141 23.9775 13.4727V13.6191C23.9775 13.8145 23.9629 14.0098 23.9336 14.2051C23.9141 14.3906 23.9043 14.5762 23.9043 14.7617C23.9043 14.8594 23.9092 14.9912 23.9189 15.1572C23.9385 15.3232 23.9678 15.4404 24.0068 15.5088C24.0264 15.5674 24.0605 15.6064 24.1094 15.626C24.168 15.6357 24.2021 15.6699 24.2119 15.7285C24.5049 15.6504 24.8174 15.6162 25.1494 15.626C25.4814 15.6357 25.7988 15.6309 26.1016 15.6113L26.3359 15.582C26.4141 15.5723 26.4922 15.5576 26.5703 15.5381C26.6191 15.5283 26.6729 15.5137 26.7314 15.4941C26.7998 15.4746 26.8584 15.4648 26.9072 15.4648C27.1709 15.4648 27.4346 15.4941 27.6982 15.5527C27.9619 15.6016 28.2354 15.626 28.5186 15.626C28.792 15.626 29.041 15.5869 29.2656 15.5088C29.4316 15.5869 29.6074 15.6699 29.793 15.7578C29.9883 15.8457 30.1299 15.9727 30.2178 16.1387Z" fill="#27A768"/>
<path d="M8.84766 33.0091C10.1892 33.0091 11.5308 33.0091 12.8724 33.0091C14.0222 33.0091 15.172 33.0091 16.3218 33.0091C17.1193 33.0091 17.9232 32.9936 18.7127 33.1322C19.5375 33.277 20.2999 33.5812 21.0789 33.8737C21.6706 34.0959 22.2696 34.3256 22.9159 34.283C23.5468 34.2414 24.0976 33.9267 24.676 33.7107C25.7278 33.3178 26.8204 33.0521 27.9377 32.9291C29.0585 32.8057 30.1272 33.0898 31.2424 33.1076C32.1431 33.1219 33.0152 32.9297 33.8887 32.7322C34.2142 32.6585 34.6026 32.6641 34.6026 32.2891" stroke="#C0C0C0" stroke-linecap="round"/>
<path d="M37.7617 32.8438H42.8573" stroke="#C0C0C0" stroke-linecap="round"/>
<path d="M9.23438 37.9979C9.3653 38.0416 9.32013 38.033 9.52977 38.041C10.2965 38.0704 11.0677 38.0533 11.8345 38.0533C14.0756 38.0533 16.3167 38.0485 18.5578 38.0533C20.3786 38.0573 22.1915 38.1188 24.0104 38.1856C24.9681 38.2208 25.947 38.2682 26.9028 38.1703C28.0206 38.0557 29.1125 37.7585 30.2291 37.6256C31.6192 37.4601 33.0403 37.4607 34.4354 37.561C36.686 37.7228 39.0653 38.3913 41.3034 37.8318" stroke="#C0C0C0" stroke-linecap="round"/>
<path d="M8.35156 41.5427C10.2819 41.5427 12.2122 41.5427 14.1426 41.5427C14.9518 41.5427 15.7611 41.5427 16.5704 41.5427C16.6699 41.5427 16.7302 41.5178 16.7704 41.5981" stroke="#C0C0C0" stroke-linecap="round"/>
<path d="M21.6445 42.0391H39.5899" stroke="#C0C0C0" stroke-linecap="round"/>
<path d="M9.56836 45.3073C2.3578 45.3073 23.9908 45.4199 31.2 45.2796C32.6552 45.2513 34.1056 45.195 35.5602 45.1473C36.2926 45.1233 37.0151 45.1057 37.7449 45.1658C38.0929 45.1944 38.4156 45.1839 38.7573 45.1412" stroke="#C0C0C0" stroke-linecap="round"/>
<path d="M41.6367 45.0312H43.1322" stroke="#C0C0C0" stroke-linecap="round"/>
<path d="M9.73438 48.7989C14.4009 48.7989 19.0894 48.6692 23.7534 48.8542C25.5936 48.9273 27.365 48.8675 29.1813 48.5342C30.1393 48.3585 31.0888 48.1442 32.0553 48.0234" stroke="#C0C0C0" stroke-linecap="round"/>
<path d="M35.3242 48.2969H41.3614" stroke="#C0C0C0" stroke-linecap="round"/>
<path d="M9.67969 52.2356C12.4159 52.2356 15.1599 52.1749 17.8954 52.2479C18.8054 52.2722 19.6741 52.4384 20.5724 52.5556C21.5204 52.6792 22.3488 52.3925 23.2064 52.0017C24.0856 51.6011 24.8846 51.1181 25.868 51.0355C26.5319 50.9798 27.2327 50.9924 27.8958 51.054C28.923 51.1495 29.9762 51.3545 31.0036 51.1832" stroke="#C0C0C0" stroke-linecap="round"/>
<path d="M34.5469 52.7344H43.0765" stroke="#C0C0C0" stroke-linecap="round"/>
<path d="M10.2891 55.9951C14.4615 55.9951 18.634 55.9951 22.8065 55.9951C24.5503 55.9951 26.2813 56.0777 28.0098 55.8136C29.0208 55.6591 30.0266 55.5156 31.0468 55.4351C31.3696 55.4096 31.6928 55.3643 32.0007 55.4412" stroke="#C0C0C0" stroke-linecap="round"/>
</svg>
