<svg width="70" height="66" viewBox="0 0 70 66" fill="none" xmlns="http://www.w3.org/2000/svg">
<path d="M26.6375 6.64063C28.1771 3.97396 32.0261 3.97396 33.5657 6.64063L52.2698 39.0371C53.8094 41.7038 51.8849 45.0371 48.8057 45.0371H11.3974C8.31824 45.0371 6.39374 41.7038 7.93334 39.0371L26.6375 6.64063Z" fill="#EEBA00" fill-opacity="0.35"/>
<path d="M36.5711 12.7188C38.1107 10.0521 41.9597 10.0521 43.4993 12.7188L62.2034 45.1152C63.743 47.7819 61.8185 51.1152 58.7393 51.1152H21.331C18.2518 51.1152 16.3273 47.7819 17.8669 45.1152L36.5711 12.7188Z" fill="#F5BB19"/>
<path d="M42.2707 24.2211L41.8267 39.8242H38.4121L37.968 24.2211H42.2707ZM37.8455 44.6322C37.8455 44.0299 38.0497 43.5246 38.458 43.1163C38.8765 42.6978 39.438 42.4885 40.1423 42.4885C40.8467 42.4885 41.403 42.6978 41.8114 43.1163C42.2299 43.5246 42.4392 44.0299 42.4392 44.6322C42.4392 45.2243 42.2299 45.7245 41.8114 46.1328C41.403 46.5411 40.8467 46.7453 40.1423 46.7453C39.438 46.7453 38.8765 46.5411 38.458 46.1328C38.0497 45.7245 37.8455 45.2243 37.8455 44.6322Z" fill="#FBFBF6"/>
</svg>
